<svg width="34" height="34" viewBox="0 0 34 34" fill="none" xmlns="http://www.w3.org/2000/svg">
<path d="M17 0.333496C13.7037 0.333496 10.4813 1.31098 7.74051 3.14234C4.99969 4.97369 2.86349 7.57667 1.60203 10.6221C0.340565 13.6675 0.0105093 17.0186 0.653596 20.2517C1.29668 23.4847 2.88403 26.4544 5.2149 28.7853C7.54578 31.1161 10.5155 32.7035 13.7485 33.3466C16.9815 33.9897 20.3326 33.6596 23.3781 32.3982C26.4235 31.1367 29.0265 29.0005 30.8578 26.2597C32.6892 23.5188 33.6667 20.2965 33.6667 17.0002C33.6667 14.8115 33.2356 12.6442 32.398 10.6221C31.5604 8.60001 30.3328 6.76269 28.7851 5.21505C27.2375 3.66741 25.4002 2.43975 23.3781 1.60217C21.356 0.764592 19.1887 0.333496 17 0.333496ZM17 30.3335C14.3629 30.3335 11.7851 29.5515 9.59241 28.0864C7.39976 26.6213 5.69079 24.539 4.68162 22.1026C3.67246 19.6663 3.40841 16.9854 3.92288 14.399C4.43735 11.8125 5.70723 9.43677 7.57193 7.57207C9.43663 5.70737 11.8124 4.4375 14.3988 3.92303C16.9852 3.40856 19.6661 3.6726 22.1025 4.68177C24.5388 5.69094 26.6212 7.3999 28.0863 9.59256C29.5514 11.7852 30.3333 14.3631 30.3333 17.0002C30.3333 20.5364 28.9286 23.9278 26.4281 26.4283C23.9276 28.9287 20.5362 30.3335 17 30.3335Z" fill="white"/>
<path d="M22 15.3335H18.6667V12.0002C18.6667 11.5581 18.4911 11.1342 18.1785 10.8217C17.866 10.5091 17.442 10.3335 17 10.3335C16.558 10.3335 16.1341 10.5091 15.8215 10.8217C15.5089 11.1342 15.3333 11.5581 15.3333 12.0002V15.3335H12C11.558 15.3335 11.1341 15.5091 10.8215 15.8217C10.5089 16.1342 10.3333 16.5581 10.3333 17.0002C10.3333 17.4422 10.5089 17.8661 10.8215 18.1787C11.1341 18.4912 11.558 18.6668 12 18.6668H15.3333V22.0002C15.3333 22.4422 15.5089 22.8661 15.8215 23.1787C16.1341 23.4912 16.558 23.6668 17 23.6668C17.442 23.6668 17.866 23.4912 18.1785 23.1787C18.4911 22.8661 18.6667 22.4422 18.6667 22.0002V18.6668H22C22.442 18.6668 22.866 18.4912 23.1785 18.1787C23.4911 17.8661 23.6667 17.4422 23.6667 17.0002C23.6667 16.5581 23.4911 16.1342 23.1785 15.8217C22.866 15.5091 22.442 15.3335 22 15.3335Z" fill="white"/>
</svg>
