<svg width="25" height="25" viewBox="0 0 25 25" fill="none" xmlns="http://www.w3.org/2000/svg">
<g clip-path="url(#clip0_89_3872)">
<path d="M12.5 0C5.59687 0 0 5.59687 0 12.5C0 19.4031 5.59687 25 12.5 25C19.4031 25 25 19.4031 25 12.5C25 5.59687 19.4031 0 12.5 0ZM10.9375 10.9375C10.9375 10.5231 11.1021 10.1257 11.3951 9.83265C11.6882 9.53962 12.0856 9.375 12.5 9.375C12.9144 9.375 13.3118 9.53962 13.6049 9.83265C13.8979 10.1257 14.0625 10.5231 14.0625 10.9375V18.75C14.0625 19.1644 13.8979 19.5618 13.6049 19.8549C13.3118 20.1479 12.9144 20.3125 12.5 20.3125C12.0856 20.3125 11.6882 20.1479 11.3951 19.8549C11.1021 19.5618 10.9375 19.1644 10.9375 18.75V10.9375ZM12.5 7.8375C12.2948 7.83745 12.0915 7.79697 11.9019 7.71838C11.7123 7.63979 11.5401 7.52463 11.395 7.37946C11.2499 7.2343 11.1348 7.06198 11.0563 6.87234C10.9778 6.6827 10.9374 6.47946 10.9375 6.27422C10.9376 6.06898 10.978 5.86576 11.0566 5.67616C11.1352 5.48656 11.2504 5.31429 11.3955 5.1692C11.5407 5.02411 11.713 4.90903 11.9027 4.83054C12.0923 4.75204 12.2955 4.71167 12.5008 4.71172C12.9153 4.71182 13.3128 4.87658 13.6058 5.16975C13.8988 5.46293 14.0634 5.8605 14.0633 6.275C14.0632 6.6895 13.8984 7.08699 13.6052 7.38002C13.3121 7.67304 12.9145 7.8376 12.5 7.8375Z" fill="black"/>
</g>
<defs>
<clipPath id="clip0_89_3872">
<rect width="25" height="25" fill="white"/>
</clipPath>
</defs>
</svg>
