<svg width="25" height="25" viewBox="0 0 25 25" fill="none" xmlns="http://www.w3.org/2000/svg">
<rect width="25" height="25" stroke="black"/>
<path d="M9.95305 21.7208C10.4731 22.3735 11.2369 22.796 12.0752 22.8947C12.9136 22.9933 13.7575 22.76 14.4201 22.2464C14.6239 22.0945 14.8072 21.9179 14.9658 21.7208M3.64669 14.3617V14.1336C3.68015 13.4588 3.89645 12.8048 4.27328 12.2393C4.90052 11.56 5.32989 10.7276 5.51636 9.82931C5.51636 9.13506 5.51636 8.43089 5.577 7.73665C5.8903 4.39435 9.19508 2.0835 12.4594 2.0835H12.5403C15.8046 2.0835 19.1094 4.39435 19.4328 7.73665C19.4935 8.43089 19.4328 9.13506 19.4833 9.82931C19.6723 10.7296 20.1013 11.5647 20.7264 12.2493C21.1061 12.8098 21.3227 13.4613 21.353 14.1336V14.3518C21.3756 15.2585 21.0633 16.1427 20.4738 16.8412C19.6947 17.6579 18.6376 18.1661 17.5025 18.2694C14.1739 18.6264 10.8157 18.6264 7.4871 18.2694C6.35327 18.1616 5.29766 17.6542 4.51583 16.8412C3.93541 16.1422 3.62733 15.2633 3.64669 14.3617Z" stroke="#200E32" stroke-width="1.5" stroke-linecap="round" stroke-linejoin="round"/>
</svg>
