<svg width="30" height="28" viewBox="0 0 30 28" fill="none" xmlns="http://www.w3.org/2000/svg">
<path d="M29.9944 16.7861C29.9925 19.5079 28.9109 22.1178 26.9869 24.043C25.0629 25.9682 22.4537 27.0514 19.7319 27.0548H1.25562C0.924095 27.0548 0.606152 26.9231 0.371732 26.6887C0.137312 26.4543 0.00561523 26.1364 0.00561523 25.8048C0.00561523 25.4733 0.137312 25.1554 0.371732 24.921C0.606152 24.6865 0.924095 24.5548 1.25562 24.5548H19.7319C21.7793 24.5365 23.7366 23.7103 25.1779 22.256C26.6192 20.8017 27.4278 18.837 27.4278 16.7895C27.4278 14.742 26.6192 12.7774 25.1779 11.3231C23.7366 9.86881 21.7793 9.04259 19.7319 9.02422H4.74437L8.83499 12.3873C8.9626 12.4913 9.06842 12.6195 9.14637 12.7645C9.22433 12.9094 9.27287 13.0684 9.28923 13.2322C9.30559 13.396 9.28944 13.5614 9.2417 13.7189C9.19396 13.8764 9.11558 14.023 9.01106 14.1502C8.90653 14.2773 8.77792 14.3826 8.6326 14.4599C8.48728 14.5372 8.32812 14.5851 8.16426 14.6007C8.0004 14.6164 7.83506 14.5995 7.67774 14.5511C7.52041 14.5027 7.3742 14.4237 7.24749 14.3186L0.461866 8.73922C0.446866 8.72672 0.435615 8.71172 0.42124 8.69859C0.388702 8.66907 0.357821 8.63778 0.32874 8.60484L0.31874 8.59547C0.30999 8.58547 0.29874 8.57797 0.28999 8.56797V8.56422C0.276865 8.54859 0.267491 8.53047 0.255616 8.51422C0.231031 8.48155 0.208287 8.44754 0.18749 8.41234C0.18249 8.40422 0.175615 8.39672 0.17124 8.38797C0.166865 8.37922 0.155615 8.36734 0.14999 8.35609C0.144365 8.34484 0.136865 8.32234 0.129365 8.30609C0.112704 8.2697 0.0976895 8.23258 0.0843655 8.19484L0.0799905 8.18359C0.0541891 8.11216 0.0359641 8.03821 0.0256156 7.96297C0.0218656 7.93984 0.0143656 7.91797 0.0124906 7.89484C0.0106156 7.87172 0.0124906 7.85047 0.0124906 7.82859C0.0124906 7.80672 0.00686514 7.79297 0.00686514 7.77422C0.00686514 7.75547 0.0118656 7.73797 0.0124906 7.71922V7.65359C0.0124906 7.63172 0.0218656 7.60797 0.0256156 7.58484C0.0359276 7.50959 0.0541535 7.43564 0.0799905 7.36422L0.0843655 7.35297C0.0981155 7.31484 0.11249 7.27797 0.129365 7.24172C0.136865 7.22547 0.14124 7.20797 0.14999 7.19172C0.15874 7.17547 0.16499 7.17109 0.17124 7.15984C0.17749 7.14859 0.18249 7.14359 0.18749 7.13547C0.207881 7.1003 0.230207 7.06629 0.254365 7.03359C0.26624 7.01734 0.275615 6.99922 0.28874 6.98359V6.98047C0.30124 6.96484 0.316865 6.95422 0.32999 6.93922C0.35874 6.90797 0.388115 6.87672 0.41999 6.84922C0.434365 6.83609 0.445616 6.82109 0.460616 6.80859L0.466865 6.80297L7.24999 1.22922C7.3767 1.12414 7.52291 1.04513 7.68024 0.996707C7.83756 0.948287 8.0029 0.931419 8.16676 0.947068C8.33062 0.962718 8.48978 1.01058 8.6351 1.0879C8.78042 1.16522 8.90903 1.27049 9.01356 1.39765C9.11808 1.52481 9.19646 1.67136 9.2442 1.8289C9.29194 1.98643 9.30809 2.15184 9.29173 2.31563C9.27537 2.47943 9.22682 2.63838 9.14887 2.78336C9.07092 2.92834 8.9651 3.05649 8.83749 3.16047L4.74687 6.52422H19.7344C22.4547 6.52786 25.0625 7.61024 26.9859 9.53398C28.9093 11.4577 29.9912 14.0658 29.9944 16.7861Z" fill="#222222"/>
</svg>
